<?xml version="1.0" encoding="UTF-8"?><svg id="uuid-18233ee9-2c12-475f-b217-05f95d5d76e3" xmlns="http://www.w3.org/2000/svg" viewBox="0 0 1078.22 445.21"><path d="M714.16,67.11h142.82c17.55,5.25,13.76,27.11,20.43,40.29.97.23,4.42-3.59,5.25-4.48,8.48-9.23,16.23-20.81,25.08-29.62,2.91-2.9,5.27-5.33,9.57-6.17l144.52-.21c9.88,1.15,14.52,8.26,15.32,17.65,1.43,16.73,1.42,47.68,0,64.41-1.29,15.18-14.31,17.31-22.46,27.75l-.05,93.67c-.02,3.92,6.72,2.87,9.83,3.67,6.71,1.72,11.33,7.8,12.5,14.47-.9,19.5,1.87,41.27.22,60.52-.75,8.71-5.4,11.43-12.27,15.46-7.12,4.18-31.67,17.93-38.36,18.6l-114.71.04c-4.39.72-9.33-4.79-12.7-4.6-2.93.16-8.03,5.17-12.01,4.56-24.38-1.65-51.7,2.22-75.73.04-5.27-.48-11.18-5.43-13.41-5.27-2.06.14-4.59,2.89-6.77,3.77-1.94.79-4.64,1.31-6.75,1.5-31.35,2.7-66.5-2.1-98.25,0-10.34-1.2-15.96-8.36-16.82-18.4-1-11.7-1.15-34.85,0-46.43,1.28-12.96,14.53-18.83,20.19-29.27l.08-103.39c.13-3.44-5.06-2.76-8.06-3.93-4.6-1.8-10.12-7.15-11.14-12.09.9-16.63-2.37-37.37-.27-53.55.23-1.77,1.27-4.5,2.18-6.06,9.46-9.96,17.96-21.12,27.35-31.1,3.24-3.45,9.97-10.9,14.42-11.81Z" fill="#f9fafb"/><path d="M850.04,84.92c1.53.93,2.77,2.43,3.75,4.5.13.41-.12,1.08,0,1.5,0,.64.26,1.14.75,1.5.12.43-.12,1.07,0,1.5l.75,1.5c.1.45-.09,1.04,0,1.5l.75,1.5c.09.46-.08,1.03,0,1.5l.75,1.5c.03.5-.03,1,0,1.5-.11,2.16.39,3.91,1.5,5.24.1.45-.1,1.05,0,1.5.02.63.27,1.13.75,1.5,4.05,17.49,8.38,36.94,13.87,53.94.71,2.2,1.17,5.98,4.11,6l13.93-53.89c3.82-3.66,29.17-32.27,31.43-32.27h136.05c-.29,9.95.63,19.7.78,29.63.14,9.45-.64,19.23-.03,28.81.23,1.8-.02,3.05-.75,3.75-.04.49.08,1.04,0,1.5l-2.25,2.25c-3.2,2.24-2.92,3.54-6.75,5.24-3.39,1.95-6.39,4.45-8.99,7.49-.66.51-1.32,1.66-2.25,2.25-.18,1.4-.49,2.01-.79.79v122.54c.29-.62.55-.28.79,1.03,1.13.89,1.97,1.5,3.54,1.44l15.92.02.77.79c1.01,16.4-.38,32.47.75,48.7.15,2.88.08,5.44-3,6.74-.78.28-1.66.52-2.25.75-8.74,4.95-17.53,9.76-26.39,14.43-1.97,1.25-3.29,1.18-3.96-.2l-.13,1c-35.98.14-71.98.19-108.01.15l-.92-1.15-.75-.22-.04-10.07c-1-1.22-.8-1.44.79-2.07-1.44.39-3.07.61-4.89.67-8.32,4.65-16.81,8.93-25.47,12.82h-69.3c-2.3-1.4-4.06-3.77-5.28-7.12-.06-.49.03-1.01,0-1.5-.52-2.35-1.77-3.25-3.76-2.7-7.37,3.07-14.52,6.62-21.45,10.66l-.64-.47-.13.74c-30.79.47-62.57.58-93.42.2-.18,0-.35-.41-.52-.94l-1.03-.29c-1.17-14.87-1.18-29.79-.01-44.77,4.48-6.08,9.07-12.04,13.79-17.88,1-1.6,2.1-3.48,3.75-4.5.7-.75,1-1.19.75-2.25.59-42.17-.79-84.45,0-126.62-.1-1-.58-1.57-1.95-2.02l.08-.97c-.06.52-.13.92-.22.92-3.64.2-9.83.06-13.53-.19-.18-.01-.34-.33-.49-.74-.47.52-1.03.7-1.34.21-3.13-4.91-1.83-33.93-1.32-41.3.12-1.79.26-3.53.7-5.26.12-.48.29-.78.84-.86.25-.44.28-.84.75-1.5l9.74-9.74c4.29-5.28,8.75-10.59,14.24-14.98,1.21-1.25,2.46-2.5,3.75-3.75.09-.07-.42-1.84,1.07-1.56l130.85.06Z" fill="#232122"/><path d="M1053.93,348.65c.08,1.78-1.06,1.94-2.22,2.65-8.27,5.05-17.67,8.62-25.93,13.79l-110.19.08c-.77.16-2.59-.54-2.59-1.16v-11.24c0-.8-2.32-1.57-3.19-.98-8.65,4.22-16.55,10.14-25.65,13.36l-69.71-.04c-3.07-.57-4.58-5.53-4.89-8.22,3.21.52,1.94,6.37,6.33,6.03l68.27-.02c9.84-3.5,18.6-10.12,28.46-13.54.63-.07,1.88.79,1.88,1.16v12.36h109.06c5.46,0,7.81-3.33,12.34-5.65,5.56-2.85,12.27-6.35,18.02-8.59Z" fill="#2f3788"/><path d="M702.38,299.95c-.15.25.12,1.39-.41,2.18-2.81,4.24-10.94,11.64-12.28,15.47-1.71,4.89-1.36,34.55-.84,41.19.11,1.44.44,2.71.79,4.09h94.07c.8,0,11.79-6.76,13.96-7.77,2.36-1.1,9.05-4.42,11.16-3.11s.73,3.17.74,3.39l-2.63-2.29c-8.9,2.84-16.62,9.06-25.46,12.05l-92.6-.38c-1.35-1.21-1.38-2.8-1.53-4.47-1.21-13.48.84-28.9.19-42.58,4.26-6.37,9.51-12.26,14.83-17.76Z" fill="#2f3788"/><path d="M1038.19,165.84v124.37c6.56,1.56,13.53.4,20.24.75.04.49-.04,1,0,1.5-5.6-.45-12.08.64-17.57-.07-3.24-.42-2.1-1.52-2.67-2.18-.08-.09-1.82.41-1.56-1.07v-122.22c-.25-1.7,1.22-.87,1.56-1.08Z" fill="#2f3788"/><path d="M689.63,116.39c-.14,1.64-.69,3.18-.78,4.84-.52,9.83-1.24,29.85,0,39.03.13.99.96,3.33,1.91,3.33h14.24c.2,0,2.07,1.2,2.32,1.53.68.91-.44,1.39-.44,1.47-2.84-3.49-17.26.39-18.73-2.81-.39-.84-.71-3.88-.79-5.03-.43-6.04-.76-38.04.8-41.81.38-.92,1.44-.48,1.48-.55Z" fill="#2f3788"/><path d="M700.13,105.15c-.12.15-.45,1.39-1.07,2.27-1.59,2.23-6.11,6.3-8.67,7.47.28-.39.28-1.32,1.07-2.27,2.04-2.47,5.78-6.15,8.67-7.47Z" fill="#2f3788"/><path d="M1049.43,156.1l-7.12,6.77c-.43.56-1.57.49-1.87.72.76-2.66,4.48-5.95,6.81-7.09.86-.42,1.8-.23,2.19-.41Z" fill="#2f3788"/><path d="M1056.18,347.9c.9-2.6,3.12-2.33,2.39-6.23l.61-.51c.11,1.54,1.52,2.75-.13,5.51-1.05,1.76-1.88.87-2.87,1.24Z" fill="#2f3788"/><path d="M853.79,89.42c-1.31.25-2.98-3.17-3.75-4.5,3.32-.46,3.04,2.23,3.75,4.5Z" fill="#2f3788"/><path d="M858.29,108.15c-3.35.36-1.47-4.61-1.5-5.24,1.03,1.34,1.13,3.55,1.5,5.24Z" fill="#2f3788"/><path d="M718.12,86.42c.09,2.79-2.7,2.91-3.75,3.75-.05-2.78,2.6-2.87,3.75-3.75Z" fill="#2f3788"/><path d="M1059.17,143.36c.07,1.13,2.48,4.21-.75,3.75.1-1.19-.5-3.1.75-3.75Z" fill="#2f3788"/><path d="M1058.42,148.6c-.46,2.71-1.23,1.53-2.25,2.25-.06-1.52.76-2.31,2.25-2.25Z" fill="#2f3788"/><path d="M706.87,293.21c2.14,2.92-.2,1.91-.75,2.25l.75-2.25Z" fill="#2f3788"/><path d="M856.79,101.4c-1.69.28-2.13-.34-.75-1.5.01.08.67.19.75,1.5Z" fill="#2f3788"/><path d="M856.04,98.41c-1.69.28-2.13-.34-.75-1.5.02.08.52.3.75,1.5Z" fill="#2f3788"/><path d="M855.29,95.41c-1.69.28-2.13-.34-.75-1.5.02.08.5.35.75,1.5Z" fill="#2f3788"/><path d="M854.54,92.41c-1.7.28-2.13-.34-.75-1.5.02.08.47.48.75,1.5Z" fill="#2f3788"/><path d="M859.04,111.14c-1.7.28-2.13-.33-.75-1.5.02.08.5.41.75,1.5Z" fill="#2f3788"/><path d="M1052.43,118.64l-85.45,34.46c-1.06.04-4.94-.2-5.25,0-.33.57-.83,1.07-1.5,1.5-3.06,2.76-9.39,4.79-9.74,5.24-.47.48-.97.98-1.5,1.5-4.83.78-10.38,3.46-15.13,5.32-7.1,2.78-14.84,6.15-22.34,8.91-1.71,1.76-8.17,4.44-9.68,2.62-.83-1,2.23-18.56,5-19.6,2.3-.46,4.1-1.29,5.43-2.5.62-.41,5.37-1.31,6.73-1.89,37.37-15.95,76.77-31.9,114.72-46.42,2.65-1.02,17.52-6.99,18.77-6.06,1.38,5.19.94,11.63-.04,16.92Z" fill="#f9fafb"/><path d="M951.24,136.62c-12.26,6.35-25.54,11.82-38.76,16.16-1.15,1.17-2.95,1.64-4.1.21-.65-.81,2.84-18.55,5.63-19.49,30.61-12.64,62.27-25.26,92.96-37.32l.86.73c-.01-.36,0-.7.13-1,.7-1.66,32.19-.49,36.09-.22.42.03.69.66.88,1.22,1.98,1.06.73,2.56-3.75,4.5-1.15.31-2.47.37-3.75.75-27.26,11.79-55.33,22.84-83.11,33.46l-.84,1c-.54.2-1.71-.2-2.25,0Z" fill="#f9fafb"/><path d="M739.11,150.85c-.98-5.82-.23-10.54,2.23-14.16,33.72-13.59,67.44-27.17,101.17-40.73,8.82-3.06,11.23,8.65,8.99,14.81-21.72,8.14-42.94,16.75-63.66,25.85-.54.2-1.7-.19-2.25,0-12.95,6.04-26.2,11.5-39.73,16.39-2.24,2.73-6.69,2.73-6.74-.66.08-.47-.06-1.02,0-1.5Z" fill="#f9fafb"/><path d="M1032.94,170.33c-1,.59-5.05,2.77-5.25,3-.1,1.01-.65,1.27-1.5.75-.95-.01-1.58.59-2.25.75-10.66,2.59-25.54,9.77-35.98,14.24.6,2.24-2.6,3.59-3.75,1.5-.13.61-.63,1.11-1.5,1.5-.44,1.44-1.1,1.43-1.5,0-2.93.73-12.96,5.62-14.9,4.4-1.05-.66-1.85-15.02.69-16.73l51.24-20.57c.74-.31.43-.97.45-1.57.99-.24,2.55.22,3.92-.18,3.1-.88,6.33-3.4,9.59-3.24,1.66,1.23.27,13.35.73,16.16Z" fill="#f9fafb"/><path d="M891.27,228.02c-2.15.45-1.61-1.23-1.53-2.62.19-3.1,3.16-14.64,5.31-16.45l54.83-22.37,2.86-.51c.09.73-.11,1.55,0,2.24s-.05,1.51,0,2.25l-.12,2.28c-.56,9.01-4.52,14.24-11.88,15.7-1.95.88-4.03,1.45-6,2.25-10.28,4.37-20.28,8.61-29.98,12.74-2.72.95-11.37,2.88-13.49,4.5Z" fill="#f9fafb"/><path d="M862.79,172.58c-17.66,5.01-34.9,15.51-51.76,20.57-1.85.55-5.7,2.12-7.1.42-1.09-1.33-3.37-12.06-2.51-13.39l62.49-25.44c1.83.02,4.99,14.4,4.03,15.52-.51.59-4.31-.2-3.66,2.33-.45.1-1.09-.12-1.5,0Z" fill="#f9fafb"/><path d="M863.53,147.11c-1.14,2.99-2.94,3.33-5.49,4.62-17.03,8.66-37.78,13.3-54.9,22.32-1.11.14-3.06.31-3.74-.68-.62-.9-1.67-12.28-.39-13.98,18.99-9.01,39.24-15.3,58.34-24.17,4.42-.67,2.29,9.11,6.19,9.62.12.65-.05,1.52,0,2.25Z" fill="#f9fafb"/><path d="M897.27,195.06c.21-.9,2.36-7.59,2.66-8.21.49-1.02,1.84-1.86,2.82-2.43,14.42-8.31,34.99-12.51,49.97-20.48l3.77-.36c.62.61-1.14,15.72-3.94,16.67l-52.83,21.36-3.19.18c.35-1.66.42-3.65.75-5.24.09-.46-.1-1.06,0-1.5Z" fill="#f9fafb"/><path d="M791.58,186.07c-.12,4.72-.01,9.51,0,14.24l-2.76,2.09c-14.95,4.87-30,13.41-44.8,18.18-1.91.62-3.84,1.7-4.92-.78,0-3.46-.52-8.89,0-11.99.48-2.86,1.78-3.48,3.99-4.62,9.94-5.15,29.78-12.9,40.6-16.36,2.8-.9,4.89-2.17,7.88-.74Z" fill="#f9fafb"/><path d="M787.83,136.62c0-2.05,5-3.36,6.77-4.1,18.61-7.78,37.57-14.75,56.21-22.48,1.39-5.99-.11-15.83-8.46-12.96l-100.51,40.38c-3.48,2.21-1.62,7.84-1.94,11.58-.09,1.01-.76,1.65-.78,1.81-1.18-2.98-1.6-12.66.8-14.56l61.3-24.89c8.38-3.55,17.17-6.26,25.6-9.63,5.08-2.03,19.7-11.61,23.91-5.16,1.32,2.02,4.46,13.07,1.53,14.86-21.58,8.2-42.71,17.35-64.42,25.15Z" fill="#2f3788"/><path d="M1037.44,102.15c.02,1.99-5.04,3.42-6.76,4.11-25.6,10.36-51.26,20.92-77.2,30.35-.4-1.93.94-1.53,2.05-2.03,11.97-5.4,24.41-9.54,36.56-14.44,15.03-6.06,29.75-13.41,45.34-17.99Z" fill="#2f3788"/><path d="M934.74,210.79l-6.22,3.89c-8.03,2.73-15.75,6.05-23.76,8.84-.44-1.98,1.04-1.43,2.18-1.9,9.2-3.79,18.6-7.12,27.8-10.84Z" fill="#2f3788"/><path d="M940.74,208.54c1.49-.67,7.19-3.53,7.83-4.53,2.11-3.31,1.78-10.02,4.16-13.45.02.24.95.93.77,2.51-.32,2.8-2.75,7.99-3.11,11.25l-2.7,2.55-6.95,1.67Z" fill="#2f3788"/><path d="M739.85,274.48c.14,3.79-.43,7.03-.75,10.49-1.05-1.15-1.07-10.07-.75-10.5.09-.12,1.08.07,1.5,0Z" fill="#2f3788"/><path d="M1027.69,173.33c-.15.17.22,1.23-.03,1.49-.47.49-1.39-.74-1.47-.74l1.5-.75Z" fill="#2f3788"/><path d="M950.49,159.84c-.54.7,1.24,1.06-1.5,1.5-.21-1.53-.03-1.72,1.5-1.5Z" fill="#2f3788"/><path d="M961.73,153.1c-.06.04.26.94-.18,1.33-.38.34-1.2.06-1.32.17-.18-1.59-.09-1.68,1.5-1.5Z" fill="#2f3788"/><path d="M864.28,172.58c-2.95-1.41-.24-3.44,2.34-3.55-.41-4.31-1.33-8.53-3.03-12.53l-60.77,24.72c-.07,2.01,1.12,11.54,3.05,11.62,13.95-4.1,27.57-9.46,40.85-16.08,5.43-3.01,10.78-4.41,16.05-4.19-.11,2.27-4.88,3.19-6.72,4.18-1,.53-1.93-.24-1.52,1.82,3.62-.52,14.98-6.89,17.62-3.75.88,1.04,2.43,8.96,3.13,11.1.35,1.09,1.86,2.85,1.72,3.46-.19.84-2.2,1.26-2.63,1.91-1.96,2.99,1.45,2,3.23,2.76,1.89.82,2.52,9.59,3.02,11.99.26,1.23,1.42,2.41,1.5,3.02.13.99-1.3,1.69-1.25,2.72.09,1.99,2.75,2.59,2.9,3.28.75,3.48.87,2.84,1.63,5.02.69,1.97-.86,4.8.99,5.68,1.5.72,1.03-1.21,1.19-1.77.91-3.12,2.97-12.78,4.07-14.68,1.17-2.01,6.16-2.25,7.09-4.16.97-1.97-3.39-.76-3.75-1.11-.3-.29-.6-8.24,2.25-7.5l1.32,1.21c-.52,1.81-.24,2.61.83,2.4l52.65-21.33c1.15-.99,3.54-12.27,3.02-13.44-.06-.14-1.65-.15-1.91-.04-15.37,6.35-30.81,12.54-46.33,18.56-4.67,1.63-7.3,5.19-7.9,10.7l-1.69.45c-2.57-2.85.62-4.67,1.02-5.99.43-1.39-.21-2.57.9-4.44,2.21-3.7,20.75-8.9,25.79-10.94,7.8-3.16,22.17-11.08,29.68-12.29,1.34-.22,2.74-.01,4.08-.05.31,5.61-1.47,11.04-2.65,16.46-.62,2.84-1.42,4.97-1.88,7.89-.22,1.37.98,3.04-1.47,2.62l-2.47-.29-54.37,22.13c-2.63,5.27-5.08,13.07-4.62,17.87-.07.05.32,1.32-.49,1.52-1.05.25-2.41-.28-3.47-.03-.61.14-.82,1.52-1.8,2.08-1.76,1.01-8.15,2.87-8.47,3.19-.37.37-.18,2.03,1.11,1.48,9.13-4.25,18.91-7.01,28.24-10.74,11.01-4.4,21.88-10.39,33.23-13.99,2.46-.78,8.2-3.48,8.38.48.08,1.91-4.52,17.47-5.7,18.67-2.74,2.79-13.07,4.33-16.52,7.46-.25,1.55.39,1.28,1.55.8,2.49-1.03,13.83-7.29,14.21-2.31.08,1.06-4.34,15.78-5.12,17.39-1.22,2.51-3.76,3.01-3.9,3.23-.8,1.18,2.08,2.34,2.18,4.05.03.45-1.28,8.23-1.48,8.88-.07.24-1.35,3.13-1.8,4.31-2.83,7.49-3.97,6.83-10.91,10.08-8.41,3.93-17.58,7.09-26.23,10.52-2.14.85-3.56-.71-2.99,2.6,11.13-4.11,22.2-9.36,33.55-13.36,3.83-.84,2.99,6.01,2.42,8.37-.07.28-2.06,3.65-2.19,4.07-.71,2.34-.46,5.34-1.37,7.48-.61,1.42-2.9,2.74-3.08,3.67-.2,1.07,1.48,2.28,1.27,4.2-.22,2-3.19,7.88-4.02,10.28s-.52,5.94-2.27,8.22c-1.36,1.77-13.98,4.91-16.45,7.53h-44.22c-.63,0-1.4-1.7-1.11-2.61.49-1.55,3.67-.2,2.98-2.63-2.18.06-4.82.87-6.89,1.57-.6.2-.57,1.16-1.18,1.36-.73.23-4.4.87-5.03.81-4.21-.37-7.8-15.22-5.73-17.66.6-.71,14.59-5.39,17.33-6.73,1.08-.53,1.88.16,1.5-1.83-4.42.61-17.52,7.67-21.07,5.64-.55-.32-.01-1.29-.24-1.68-.1-.18-.86-.21-1.1-.79-.87-2.09-3.39-10.57-3.09-12.5.14-.9.47-1.35,1.09-1.96,1.57-1.54,4.48-.55,4.16-2.95-8.43,2.27-6.87-2.46-8.03-8.08-.61-2.95-2.47-3.91-1.54-7.86.24-1,1.72-1.45,1.33-2.79-5.48.82-4.58-5.65-5.43-8.62-.1-.34-1.14-.37-1.46-1.43-.21-.69-.65-5.41-.57-6.04.4-3.43,7.04-4.55,9.75-6.01.46-.25,2.84-.77,1.46-1.88s-8.12,5.09-11.97,3.36c-3.08-1.39-1.77-4.48-2.42-6.58-1.37-4.42-1.43-6.11-2.42-10.32-1.01-4.33-2.99-2.09-2.77-8.61.01-.39-1.33-.21-1.44-.82-.56-3.12-.42-8.65-.88-11.7-.32-2.05-2.95-2.91-3.42-4.06-.93-2.28-2.98-12.72-2.29-14.72l5.12-4.24c-2.46.32-5.09,2.68-7.08-.04-.99-1.35-3.65-12.83-3.43-14.53.55-4.26,11.42-6.1,14.99-7.55,16.36-6.67,32.3-14.43,49.19-19.83,4.12-1.4,7.11,11.08,7.12,13.87,0,4.11-2.83,4.1-6.07,4.86Z" fill="#2f3788"/><path d="M945.23,212.29c.85.89-3.31,15.79-4.95,17.15-27.32,11.07-54.49,22.64-81.88,33.54-7.8,3.11-20.55,9-27.99,10.98-1.05.28-3.48.98-4.28.43-.6-.42-3.82-13.3-2.62-14.23l121.71-47.87Z" fill="#f9fafb"/><path d="M938.49,237.02c.82.9-2.89,16.14-4.25,17.28l-100.96,40.26c-1.57-.3-4.66-10.49-4.84-12.43-.08-.85-.31-1.51.61-2.03l109.44-43.08Z" fill="#f9fafb"/><path d="M932.49,261.74c-2.33,5.5-2.07,16.07-7.57,19.02l-85.17,34.06c-.92.31-1.47.14-2.07-.63-1.13-1.44-4.65-12.93-2.16-14.16l96.98-38.29Z" fill="#f9fafb"/><path d="M925,287.21c.54.56-2.69,13.35-3.35,15.01-.35.89-.74,1.65-1.63,2.12l-74.3,30.66c-.62.22-1.33.34-1.96.12-1.31-.45-4.33-13.32-3.35-14.84l84.6-33.07Z" fill="#f9fafb"/><path d="M870.18,175.68c.69,2.13,4.48,12.9,3.76,14.04l-57.99,23.33c-2.22.52-5.35,2.86-7.08.31-.32-.48-3.04-10.63-3.02-11.21.04-1.05.64-1.7,1.52-2.17,18.32-6.8,36.12-15.29,54.48-21.96,1.67-.61,7.2-3.04,8.33-2.33Z" fill="#f9fafb"/><path d="M873.09,195.92c.69-.1,1.03-.11,1.68.22,1.52.79,6.23,13.06,2.99,14.26l-61.07,24.41c-1.86-.16-4.78-9.82-4.87-11.74-.06-1.36.37-2.19,1.51-2.9l59.76-24.25Z" fill="#f9fafb"/><path d="M879.79,215.4c2.58-.26,6.01,12.89,3.66,14.92-7.11,1.63-60.04,26.45-62.26,23.96-.63-.71-3.96-10.84-3.98-11.79-.03-1.14.62-1.46,1.39-2.07l61.19-25.02Z" fill="#f9fafb"/><path d="M859.79,336.66c-.4-.38-.03-2.69,1.28-2.83l56.2-22.52c.67-.34,1.57.61,1.69,1.09.37,1.53-3.65,14.42-4.84,16.02-1.52,2.04-16.65,8.16-19.5,8.3-2.65.13-5.91-.09-8.94,0-3.28.09-24.95.85-25.89-.04Z" fill="#f9fafb"/><path d="M875.52,236.27c.43,2.18-.65,1.19-1.65,1.69-12.2,6.02-25.22,10.38-38.07,14.79-.4-2.14.57-1.21,1.64-1.7,12.37-5.67,25.18-10.48,38.08-14.78Z" fill="#232122"/><path d="M838.05,184.58c-7.45,6.1-17.4,7.83-26.23,11.23-.38-1.93.41-1.31,1.46-1.88,7.75-4.17,16.4-6.72,24.77-9.35Z" fill="#232122"/><path d="M885.27,298.46c.48,1.7-1.68,2.23-2.83,2.77-7.52,3.53-15.73,6.03-23.4,9.21l1.46-1.88,24.77-10.1Z" fill="#232122"/><path d="M852.29,178.58c.38,1.99-.42,1.3-1.5,1.83-2.89,1.41-6.52,3.02-9.74,3.41-.36-1.96.37-1.32,1.49-1.84,3.05-1.42,6.63-2.08,9.74-3.4Z" fill="#232122"/><rect x="858.29" y="331.42" width="2.24" height="1.49" fill="#232122"/><path d="M830.18,276.72c.49.25.49.5,0,.75v-.75Z" fill="#232122"/><path d="M1052.43,118.64c-.95,5.13.26,1.7,1.71,4.65.99,2.01,1.27,14.08-1.33,14.08h-18.36c-.1,3.34.18,6.71-.06,10.05-.32,4.61-.18,3.38.1,7.52.33,4.84-.36,10.06,0,14.96-.13.92-1.25.27-1.54.44l-1.02-.1c-.36-4.65-.6-9.49-.73-14.51l-8.58,3.24c-2.09.57-3.39.11-3.91-1.36q-1.69-.62,0,0c1.99.74,1.72,2-.04,3.01l-50.84,20.4c-1.53,4.51-1.1,9.48-.46,14.14,4.25-1.05,8.41-2.46,12.47-4.23l1.39,1.14c2.08,2,6-.27,6.75-3l1.18-2.14c10.6-5.05,21.46-9.4,32.59-13.07l2.21.97-5.73,3.64c-3.55,1.44-7.31,2.58-10.76,4.26-1.08.53-1.88-.16-1.5,1.83,5.23-.54,22.63-10.65,26.44-9.63.64.17,1.37.8,1.66,1.39.84,1.72.66,15.84-.33,17.46-.61,1.01-2.3.69-2.3,2.38,0,.6,1.7.59,2.32,1.43.95,1.28,1.08,14.35.67,16.54-.17.89-.48,1.31-1.03,1.97-1.39,1.66-3.81.62-3.45,2.92,1.77-.12,3.78.11,4.35,2.03.51,1.72.43,13.47-.01,15.42-.89,4-12.5,6.56-16.49,8.24-2.31.98-4.86,2.26-7.2,3.33-1.07.49-2.04-.44-1.64,1.7,5.22-1.52,10.6-3.07,15.72-4.88,3.36-1.18,8.94-6.55,9.8-.02.28,2.13.31,12.4-.19,14.12-.78,2.68-6.92,4.35-9.44,5.58-1.01.49-2.07-.49-1.64,1.69,1.94-.33,11.24-4.27,11.24-.37v14.98c0,1.74-3.59,3.31-4.98,4.01-10.85,5.46-24.02,8.65-35.13,13.58-.79.35-7.83,3.17-6.36,4.5l43.16-17.24c5.37-.33,2.52,8.23,3.3,9,.67.66,17.38-.89,18.74.75,1.75,2.11-2.91,3.14-3,3.37-.68,1.67,2.3.88,3.45,1.79.92.72.94,1.62,1.08,2.66.31,2.34.38,12.13-.05,14.26-.34,1.72-2.02,2.35-2.16,3.11-.09.51,1.84,3.42,2.1,5.21s.53,12.3-1.81,12.3h-30.73c-3.95,0-2.78-2.29-.16-3.9.3-.19,7.09-2.44,3.9-2.86-3.24-.84-14.74,6.76-15.73,6.76h-44.22c-.47,0-1.16-1.26-1.15-1.89.02-1.63,2.43-2.39,3.78-3,1.18-.53,4.18.23,2.61-1.87-5.97.21-20.52,10.02-25.55,6.08-2.24-1.76-.6-13.17-.71-16.53,11.35-5.27,24.48-9.19,35.63-14.67,1.07-.53,1.88.17,1.5-1.83l-34.84,12.78c-.63.07-1.88-.79-1.88-1.17v-17.23c0-.37,6.12-3.14,6.61-3.25,1.13-.25,1.55.63,1.63.63,2.31,2.09-3.88,4.72-6,4.12.58.07,1.45.24,1.5.65.15,1.33.26,11.53,0,12.44l-1.5,1.52.75-1.92c27.31-10.99,55.25-22.24,82.55-33.22l1.4,1.05c-.58-.07-1.42-.22-1.5-.65-.2-1.11-.23-11.94,0-12.91l1.5-1.05-.85,1.55c-21.35,7.49-42.39,16-63.13,25.53-.51,2.61-2.74,5.58-4.97,2.88.52-4.52,1.56-7.6,6.75-7.5.57-2.76-2.69-.79-4.51-1.86-2.74-1.61-1.17-14.85-1.13-18.34l25.13-9.77c.26-1.71-.13-1.76-1.73-1.35-4.23,1.09-10.57,3.73-14.9,5.34-2.15.8-6.75,4.98-8.58,1.67-.42-.76-.53-15.79-.13-17.13.84-2.78,7.81-3.25,8.85-4.27.39-.38.44-1.7-1-1.38-2.26.51-6.77,3.17-8.37-.11-.7-1.42-.62-12.4-.31-14.55.32-2.13,1.91-3.8,2.04-4.71.14-.98-1.36-2.19-1.61-3.35-.72-3.25-.99-11.19-.46-14.45.32-1.97,2.23-3.39,2.23-4.55,0-1.27-1.97-1.98-2.31-4.44-.34-2.51-.33-11.04.08-13.49.33-1.98,2.1-3.18,2.16-4.51s-1.31-3.34-1.46-5.26c-.23-3.03-.49-10.8.02-13.47.6-3.13,7.66-4.25,10.48-4.89.59-3-4.75-.32-6.54-.24-.56.03-.91-.51-.96-.51l-.08-1.58c28.03-11.31,56.07-22.61,84.12-33.93l1.41,1.05Z" fill="#2f3788"/><path d="M963.23,296.2c4.66-.49,2.06-3.19,5.03-5.09,18.65-6.98,36.79-15.65,55.5-22.45,2.74-1,5.52-2.4,8.43-2.43v14.61l-84.7,34.09v-14.61c0-1.57,5.46-2.41,6-4.12,3.11-.04,6.77.31,9.74,0Z" fill="#f9fafb"/><path d="M947.49,322.8c.5-1.73,11.15-5.72,13.52-6.72,22.5-9.45,45.58-17.71,68.14-27.04l3.04-.33c-.26,1.6-.16,7.49,1.88,7.49h14.62c.52,1.9-1.67,1.94-3.03,2.58-29.52,13.81-62.84,23.36-92.6,37.07l-5.56.07c.63-3.47-.86-10.13,0-13.11Z" fill="#f9fafb"/><path d="M966.23,160.22c.57-2.65,10.56-6.27,13.5-7.48,4.11-1.69,8.58-2.85,12.72-4.52,19.19-7.76,38.3-15.75,57.49-23.49,3.62-.24,1.79,10.28,1.03,10.81-2.1,1.47-16.6-.94-17.93,1.18-.47,4.05.83,10.52-3.32,12.79l-59.57,24.39c-.96.63-3.92.04-3.92-.94,0-3.34-.59-9.96,0-12.74Z" fill="#f9fafb"/><path d="M1004.46,226.52c-11.02,2.84-24.28,11.34-34.29,13.33-1.1.22-3.94.28-3.94-.97v-13.49l64.83-25.88c1.63-.15.96.17,1.12,1.15.59,3.48,1.74,11.67-.76,14.22-3.87,3.95-19.82,6.49-24.71,10.89.34,2.07-1.02,2.44-2.25.75Z" fill="#f9fafb"/><path d="M1032.19,222.03v14.61l-63.52,26.47c-.8.52-2.44-.48-2.44-1v-13.49c0-1.35,5.65-3.63,7-4.25,14.64-6.7,32.79-13.71,47.96-19.5,3.4-1.3,7.42-2.88,11.01-2.86Z" fill="#f9fafb"/><path d="M966.23,204.42c.17-.61,2.46-2.34,3.22-2.77,17.54-6.72,34.74-14.43,52.26-21.19,1.62-.63,7.76-3.22,8.76-3.27.64-.04,1.72.56,1.72,1.01v14.24c-21.02,9.37-42.58,17.78-64.08,25.89-.63.07-1.88-.79-1.88-1.17,0-2.9-.59-10.64,0-12.74Z" fill="#f9fafb"/><path d="M1032.19,243.76v15.36l-63.42,25.83-1.72-.05c-1.04-.71-2.25-15.54,1.98-16.24,20.03-6.8,40.39-17.89,60.29-24.4.95-.31,1.84-.63,2.87-.51Z" fill="#f9fafb"/><path d="M1051.68,302.95v11.61c0,2.57,1.17,2.58-2.2,4.54-5.28,3.08-34.22,15.08-39.87,16.34-6.04,1.34-30.19,1.61-37.02,1.06-.95-.08-3.03-.21-2.61-1.7l81.71-31.85Z" fill="#f9fafb"/><path d="M1024.69,336.66c-.25-1.6.95-2.12,2.06-2.81,1.75-1.09,22.57-9.19,23.85-9.16,2.96.06,2.88,11.97-.8,11.97h-25.11Z" fill="#f9fafb"/><path d="M1006.7,225.78c.08-.03.95,1.02,1.65.64,5.9-1.49,13.48-6.09,19.09-7.26,1.45-.3.99.19.99,1.37l-28.99,11.13c-1.31.68-1.24-1.14-.99-1.37.59-.55,6.37-.88,6-3.76.62-.16,1.53-.52,2.25-.75Z" fill="#232122"/><path d="M987.96,189.06c.5,1.35,2.32.09,3.18-.19,2.4-.78,6.24-2.52,8.48-2.78,1.48-.18,1.13.21,1.09,1.47-6.76,2.01-13.18,5.43-19.95,7.43-1.03.3-1.33-.03-1.04-1.04.19-.68,2.12-.15,1.5-1.88.42-.1,1.03.08,1.5,0,.25-.66.75-1.16,1.5-1.5,2.3-.48,1.89-.7,3.75-1.5Z" fill="#232122"/><path d="M1004.45,162.09c.4,2.14-.57,1.21-1.64,1.7-3.58,1.64-7.39,2.98-11.1,4.29-.38-1.99.42-1.3,1.5-1.83,3.37-1.65,7.55-3.38,11.24-4.16Z" fill="#232122"/><path d="M1008.2,249.76c.41,2.14-.58,1.2-1.64,1.69-2.56,1.18-5.35,2.15-8.1,2.8-.4-2.13.56-1.21,1.63-1.7,2.48-1.13,5.37-2.75,8.1-2.79Z" fill="#232122"/><path d="M1018.7,157.6c-2.34.58-4.33,1.93-6.74,2.24-.42-2.17.64-1.2,1.64-1.69,1.74-.85,5.19-3.51,5.1-.56Z" fill="#232122"/><path d="M1009.7,159.85c1.31,1.27-2.59,2.63-2.99,2.24-1.31-1.27,2.59-2.63,2.99-2.24Z" fill="#232122"/><path d="M986.46,302.95v1.49s-2.99,0-2.99,0c.4-1.49,1.6-1.68,2.99-1.49Z" fill="#232122"/><path d="M1004.45,184.57c.82.82-.67,2.31-1.49,1.49s.67-2.31,1.49-1.49Z" fill="#232122"/><path d="M1021.32,266.23c.49.25.49.5,0,.75v-.75Z" fill="#232122"/><path d="M791.58,200.3c0,2.68.75,6.03.75,6.37v16.48c0,.65-2.71,2.11-3.46,2.53-2.12,1.18-11.8,4.15-12.28,4.59s-.41,1.63,1.08,1.46c4.38-.49,9.08-4.8,13.91-3.72l-.11,41.86-47.87,19.22,1.56.8,45.27-17.7c.6.06,1.2.2,1.57.73.53.76.58,14.28.29,16.11-.33,2.06-2.22,3.32-2.24,4.52,0,.42.88.35,1.22.69.42.41.25,1.2.32,1.2h20.24c.43,2.5.63,7.75-.1,10.04-.44,1.4-2.71.67-2.16,2.32,4.74.98,3.35,18.23,1.87,20.6-.75,1.21-3.4,1.24-3.37,1.88l3.75.38c.5,1.13-.71,1.98-.75,2.24-1.46.89-3.26,1.61-5.37,2.18,2.29-.34,4.08-.07,5.37.81,0,.17,2,1.68-1.13,2.24-2.25.4-14.61.72-11.13-3.05,1.22-1.32,6.61-1.5,5.13-3.7-4.74.61-11.75,6-15.77,6.71-7.52,1.33-30.13.86-38.85.71-3-.05-9.81-1.31-4.62-4.45,1.71-1.03,6.09-1.26,4.53-2.97-5.39,1.33-11.44,3.26-15.73,6.75h-12.74c-2.55,0-.45-15.13-.49-16.88-.04-1.69-1.32-3.26-1.38-5.21-.13-3.91-1.1-15.28,2.29-17.2.67-.38,8.82-3.39,9.85-3.64,1.87-.46,6.95-.39,7.26-.61.38-.28.87-3.76,3.84-4.03.46-2.16-2.47-.65-3-1.11-.1-.09.02-1.68,0-2.25l1.36-1.71c16.26-5.08,33.24-10.76,47.93-19.19l1.68.29c-.58-.07-1.42-.23-1.5-.66-.23-1.29-.19-10.96.13-12.14l1.37-1.06-.53,1.78c-16.09,6.28-32.19,12.53-48.3,18.77l-1.39-1.07c-.15-2.05-1.43-5.49-1.54-7.08-.42-5.84.35-11.87.35-17.69,11.45-4.08,22.87-8.39,34.02-13.22,1.01-.44,2.51-.55,2.41-2.09l-35.5,12.4c-1.64-.38-1.56-14.07-1.28-16.2.34-2.61,2.25-3,2.3-4.45.02-.49-1.51-.2-1.98-1.86s.47-2.11.47-2.26c3.95-.12,8.05-1.28,12.32-3.48,13.03-5.5,25.88-11.05,38.53-16.65l1.62.65Z" fill="#2f3788"/><path d="M739.85,272.23l50.22-19.48v13.86c0,.4-2.16,2.06-2.81,2.43-7.21,4.12-21.85,9.26-30.18,12.54-5.6,2.2-12.13,4.96-17.98,5.63-.02-.73-.07-1.52,0-2.25-.6-3.86-.35-7.36.75-10.49-.03-.75.06-1.51,0-2.25Z" fill="#f9fafb"/><path d="M811.06,332.92c-.11.91,0,2.03,0,3-1.12,1.05-8.27,1.06-8.25.37.05-2.18,6.24-5.02,8.25-3.36Z" fill="#f9fafb"/><path d="M809.37,304.26l-75.18,30.86c-2.26.75-10.89,1.51-12.37.47-1.2-.84-1.11-11.05.24-12.23,22.09-9.03,44.63-17.12,66.36-26.99l19.87.74c2.83.84,2.4,5.19,1.08,7.15Z" fill="#f9fafb"/><path d="M721.12,317.18v-14.61c0-1.08,7.38-4.26,8.83-4.66,3.03-.85,6.76-.45,8.67-1.07.97-.32,1.81-2.67,3.71-3.78,8-4.7,26.08-10.91,35.57-14.64,2.05-.8,8.95-3.73,10.46-3.82.64-.04,1.72.56,1.72,1.01v13.49l-68.96,28.1Z" fill="#f9fafb"/><path d="M790.08,230.27v14.61l-50.22,20.6v-15.36c8.46-4.96,17.95-7.68,26.97-11.25,7.54-2.98,15.31-7.46,23.25-8.6Z" fill="#f9fafb"/><polygon points="790.08 207.79 790.08 222.4 739.85 243.01 739.85 227.65 790.08 207.79" fill="#f9fafb"/><path d="M747.35,336.66l2.06-2.81c18.19-6.03,36.02-15.45,53.97-21.72,1.58-.55,5.02-2.03,6.45-1.75,1.74.35,1.91,14.44.09,16.52-2.44,2.8-19.15,7.05-23.22,9.76h-39.35Z" fill="#f9fafb"/><path d="M785.58,136.62c.13,1.97-1.14,1.87-2.39,2.48-12.02,5.89-25.32,9.78-37.64,14.82-.97.4-1.96,1.04-2.69,1.81-.29,1.92,1.26,1.04,2.29.79,10.46-2.51,26.05-10.76,36.69-15.03,19.87-7.95,40.03-15.36,59.94-23.25,4.39-1.74,12.01-8.36,14.81-2.03.79,1.79,3.22,12.05,2.66,13.44-1.46,3.63-9.49,4.58-12.87,5.92-2.29.91-5.48,2.43-7.59,3.68-.41.24-2.88.7-1.48,1.86,1.22,1.01,18.93-7.74,21.33-7.51,2.96.28,4.39,8.57,4.9,11.26l-1.6.97c-1.77-2.92-3.18-5.98-4.23-9.18-19.23,8.01-38.49,15.95-57.78,23.81-.54.26.36,11.25.71,12,.11.23,1.77.29,2.01.19,14.86-6.7,30.02-12.72,45.49-18.05,0,0,5.13-2.5,15.39-7.5.01.14.71.59.75,1.2.15,2.25-1.66,3.11-3.46,3.96-15.48,7.36-32.35,13.08-48.4,19.06-4.93,1.84-9.28,5.85-14.87,5,.55-4.72-4.9-15.96.04-19.07,1.94-1.22,7.83-2.47,10.61-3.63,1.53-.64,3.68-1.62,5.13-2.4.46-.25,2.85-.77,1.46-1.88-.92-.73-18.71,8.4-22.48,4.49.98,2.14-1.5,4.47-1.5,5.62,0,.88,1.33,2.03,1.54,3.71.86,7.05-.61,15.83-.79,22.89-.55,1-1.46,1.28-2.74.85-17.82,4.87-34.4,11.83-49.73,20.88-1.47-.8-.62-2.6-.38-3.77.86-4.2-.37-14.9-.4-20.61-.03-6.46-.53-14.64,0-20.98.18-2.14.03-3.66,2.28-4.46-.87-.89-1.88-1.96-2.15-3.21-.37-1.67.59-2.02.66-2.41l3.16,1.34c14.35-5.95,28.68-11.88,43.31-17.08Z" fill="#2f3788"/><path d="M739.85,160.59l111.51-44.82c3.49-2.09,6.03,10.28,5.94,12.15-.11,2.22-3.14,2.94-5.02,3.82-16.85,7.85-35.01,12.96-51.86,20.87-4.96,1.23-10.02-3.45-11.04,3.92-16.24,6.87-32.64,14.53-49.52,19.8v-15.73Z" fill="#f9fafb"/><path d="M790.08,163.59v13.86c0,.33-.85,1.63-1.27,1.92-16.46,5.78-32.07,14.42-48.95,18.68v-14.61c9.47-4.53,19.42-8.85,29.25-12.72,6.68-2.64,14.09-5.6,20.98-7.13Z" fill="#f9fafb"/><path d="M829.8,143.36c1.36,1.13-.99,1.62-1.46,1.88-1.03.56-8.65,3.67-9.02,3.36-1.36-1.13.99-1.62,1.46-1.88,1.25-.68,8.44-3.86,9.03-3.36Z" fill="#232122"/><path d="M911.51,175.58c-.95,3.54-7.59,3.87-10.5,3.75-.82-.82,2.25-18.86,3.7-20.66,1.14-1.43,4.28-1.82,6.05-1.83.79-2.56-3.69-1.22-4.41-2.33-1.23-1.9,2.24-9.3,2.86-11.57.46-1.66.02-3.65.76-5.99.84-2.67,3.27-4.04,3.64-5.35,1.65-5.72,1.17-13.2,3.86-20.12.66-1.69,2.92-4.3,2.96-4.57.13-.88-1.28-1.69-1.36-2.85-.14-1.92,1.02-8,2.95-9.01,2.68-1.4,17.51-2.03,19.14.31,2.26,3.25-5.69,4.87-7.78,5.84-1.05.49-2.05-.45-1.64,1.69,8.03-.48,16.11-8.28,23.57-9.02,6.63-.66,13.66.56,20.2.72,2.01.05,4.83-.8,7.61-.71,3.7.13,7.85,1.29,11.8.93,1.3.23,2.67,2.62,2.02,3.58-.24.35-6.87,2.38-8.08,2.81-1.32.47-4.33-.51-2.77,1.71,6.43.65,15.49-7.22,21.02-8.21,7.08-1.26,31.78-.71,39.68-.04,1.4.12,2.71.74,4.13.75.38,4.56-6.39,5.09-9.75,5.99-.53-2.58,4.14-1.52,3.75-4.5h-37.1l-93.74,38.17c-2.38,2.1-3.43,13.74-4.83,17.27,1.06.17,1.99-.09,3-.36,11.38-3.09,27.04-11.02,38.97-15.37.33,1.88-2.72,2.56-4,3.12-9.71,4.31-20.11,8.41-29.59,12.53-1.57.68-8.06.8-5.39,3.83-.07.04.19,1.13-.49,1.53-1.99,1.16-4.36.94-5.82,3.77-.76,1.47-3.57,13-3.49,14.56.06,1.15.12,1.9,1.18,2.58,2.53-1.22,5.26-1.99,7.88-2.96Z" fill="#2f3788"/><path d="M990.21,96.91l-.98,1.67c-24.18,9.78-48.26,20.16-72.84,29.07-1.27.11-1.22.04-1.16-1.15.09-1.72,3.17-12.11,3.96-14.04.8-1.94,2.75-2.86,4.53-3.71,3.21-1.52,27.79-11.85,29.38-11.85h37.1Z" fill="#f9fafb"/><path d="M936.24,96.91c.4,2.06-.52,1.28-1.52,1.82-2.67,1.43-8.03,4.1-10.84,4.21-1.43.06-1.88.48-1.91-1.16-.02-1.16.8-4.87,1.9-4.87h12.37Z" fill="#f9fafb"/><path d="M984.22,190.56c.24,2.14-.17,1.28-1.5,1.5-.26-2.2.25-1.24,1.5-1.5Z" fill="#2f3788"/><path d="M719.62,122.76c.34-1.21,3.41-1.89,3.75-3.36-1.81.11-3.63-.09-4.33-1.97,2.07-5.54-1.9-14.9,2.88-18.6,9.84-7.61,24.87-4.44,36.31-4.32,2.89.03,13.19-1.61,15.2-.43.75.44,2.43,3.76.57,4.37l-28.15,11.21c-.06,1.21-.36,1.69,1.11,1.49,2.78-.38,12.42-5.16,15.95-6.55,2.76-1.09,5.99-1.62,8.58-2.66,2.65-1.07,12.72-7.27,14.47-7.27h41.98c3.6,0,.99,4.44-.95,5.19-19.74,7.66-39.66,15.8-59.4,23.64-4.86,1.93-32.54,13.87-34.85,13.87h-11.99c-.08,0-1.12-1.04-1.12-1.12,0-3.05-.61-11.29,0-13.49Z" fill="#2f3788"/><path d="M823.81,96.91l-1.24,2.13c-29.23,10.08-58.5,25.77-87.77,35.14-4.58,1.47-7.95,2.23-12.93,1.69v-11.61c0-.81,11.64-5.96,13.51-6.73,17.23-7.12,35.01-13.07,52.08-20.62h36.35Z" fill="#f9fafb"/><path d="M769.84,96.91c1.45,1.15-3.89,3.07-4.52,3.35-13.85,6.23-29.35,11.04-43.45,16.88v-15.36c1.46-1.47,8.59-4.87,10.12-4.87h37.85Z" fill="#f9fafb"/><path d="M731.61,116.4c-1.23,1.87-4.63,2.75-6.75,2.98,1.17-2.13,4.5-2.8,6.75-2.98Z" fill="#232122"/><path d="M743.6,111.15c.82.82-.67,2.31-1.49,1.49s.67-2.31,1.49-1.49Z" fill="#232122"/><path d="M560.7.26l-76.39,173c.95,1.33,28.42.92,32.57.85,29.58-.48,59.5-1.89,89.14-2.31,9.24-.13,19.09-.43,28.14.79,1.34,1.93-15.39,17.79-17.62,20.21-77.17,83.68-155.31,166.39-232.74,249.87-2.69,3.31-8.69,3.94-6.78-1.5,23.82-52.7,51.16-103.98,74.89-156.69,1.19-2.63,5.82-12.28,4.5-14.4-.97-1.54-23.46-.73-27.28-.82-34.08-.83-68.66-1.25-102.67-3.02-3.09-.16-16.42,1.48-15.24-3.2.41-1.63,16.4-18.75,18.99-21.54,45.96-49.49,92.44-99.33,139.46-147.56,27.12-27.82,53.22-57.87,80.53-85.84,1.57-1.6,8.58-9.64,10.51-7.84Z" fill="#ece319"/><path d="M268.75,243.76c.38.07,6.13,2.48,6.88,2.86,5.2,2.64,7.98,7.74,9.17,13.31l-.11,90.42c-2.21,11.27-13.07,13.57-21.48,18.24s-17.04,10.44-26.28,14.19c-71.89,2.55-144.25.34-216.32,1.12-10.43-.75-16.77-5.42-19.79-15.44,1.42-16.68-2.05-36.93-.06-53.17,1.37-11.19,16.6-18.89,21.74-28.47l.05-101.83c-10.45-.62-18.18-4.94-21.59-15.21,1.48-16.48-2.62-38.67-.13-54.47,1.25-7.97,22.34-27.26,28.82-34.13,4.45-4.72,6.83-10.42,13.85-12.38,73.9-2.6,148.23-.35,222.28-1.14,9.81.34,18.21,7.84,19.07,17.65-1.68,29.99,2.29,62.48.04,92.17-.55,7.34-2.55,12.46-8.77,16.7-7.13,4.87-28.74,16.44-36.72,19.49-1.92.74-7.67,1.87-8.16,2.34-1.99,1.91-.98,18.91-1.06,22.91-.02,1.06-1.38,4.84.34,4.84h38.23Z" fill="#f9fafb"/><path d="M148.44,287.59c.52,1.81,3.31.37,4.84.34,2.41-.05,14.37,1.49,15.3-.07.61-1.03-.68-3.79,1.15-5.22.32-.25,5.65-1.42,6.07-1.42h20.61c.74-5.6-.41-11.22,0-16.85.17-2.29.54-7.82,2.77-8.47l62.76-.1c4.81.74,2.52,4.46,5.34,7.4.46,27.89.77,55.96-.16,83.78l-33.44,18.32c-60.73,3.1-122.13.42-183.1,1.37-8.86-1.13-17.93.61-26.98,0-4.51-.31-5.23-.13-5.62-4.87-1.25-14.89.73-31.84.35-46.93,3.32-2.74,5.42-6.63,8.29-9.68,2.04-2.17,13.13-11.55,13.13-13.1v-124.75h-19.86c-.67,0-2.09-3.12-1.89-4.11l.35-46.88c6.43-8.96,15.11-15.84,22.92-23.54,2.55-2.52,4.4-5.95,8.18-7.55l215.9.06,1.87,1.87.43,88.05c.05,1.12-.16,2.13-.6,3.15-1.37,3.21-17.98,10.3-22.09,12.39s-9.56,6.72-14.45,7.28-14.66-2.32-15.4,3.34c-1.46,11.12,1.46,24.98-.33,36.39-3.49,2.23-7.06,4.37-10.37,6.87-2.92,2.19-21.21,17.1-22.62,17.1h-32.23c-.08,0-1.12,1.04-1.12,1.12v24.72Z" fill="#2f3788"/><path d="M19.51,117.51c6.13-6.42,12.16-13.31,18.73-19.49,2.37-2.23,10.93-10.45,13.17-10.81l209.88-.09,3.4,1.09v89.86c-11.6,5.74-22.64,13.75-34.93,17.73-5.59,1.22-16.02-3.36-16.88,4.11-1.31,11.37,1.31,24.77-.36,36.36l-31.14,23.57c-5.07,1.6-31.86-1.07-34.09,1.13-.98.97-1.02,2.8-1.14,4.1-.3,3.33-.32,23.46.97,24.95,1.06,1.23,18.82,1.41,21.02.78,3.45-.99,2.59-7.33,4.66-7.33h25.11c-.24-.74.75-1.63.75-1.87v-22.48c0-.08,1.04-1.12,1.12-1.12h62.21c1.33,0,3.05,6.38,3.4,7.84l-.15,79.32c-.36,1.05-2.82,2.21-3.87,2.87-3.43,2.15-29.1,16.36-30.86,16.36H20.64c-.08,0-1.12-1.04-1.12-1.12v-47.2l20.2-20.42c2.55-4.13,2.38-7.9,2.31-12.58-.47-32.85.3-66,0-98.84-.04-4.05.66-14.87-.93-17.87-.53-.99-.57-1.06-1.72-1.28-5.81-1.1-13.91,1.36-19.87-.74v-46.83Z" fill="#232122"/><path d="M257.13,261.74c4.05.59,3.33,12.74,1.42,14.69-3.27,1.74-6.5,3.34-9.67,4.79-.97.31-2.03.43-3,.75-11.7,4.96-23.19,9.7-34.48,14.24-.61.12-2.05-.17-2.25,0l-1.5,1.5c-1.14.26-1.82.37-3,.75-12,5.29-24.91,10.47-37.48,14.98-.45.26-1.81.2-2.25.75l-1.5,1.5c-.71.1-1.62-.14-2.25,0-16.81,7.12-33.69,14.31-50.63,21.55l-1.47-.57-.23.75h-37.86l-.51-.75c-.26-.3-.5-.6-.65-.95-.77-1.8,18.68-9.67,21.94-10.31,25.47-10.49,51-20.97,76.8-30.38,11.12-.08,22.2-.44,33.25-1.06l1.32-1.6c-.1-3.67-.01-7.32.27-10.96,14.89-8.48,31.45-14.2,47.73-19.66,1.71-.17,4.26-.13,6,0Z" fill="#f9fafb"/><path d="M157.43,320.93c30.91-11.27,63.49-27.41,94.26-37.27,1.2-.38,7.68-3.1,7.68-.56v16.86c-5.02,1.22-10.01,3.45-14.99,5.24-.93.74-1.93,1.49-3,2.25-1.2.38-9.37,2.65-9.74,3-.46.48-.96.98-1.5,1.5-14.92,2.43-42.43,16.85-57.73,22.07-1.25.43-6.69,3.41-7.11,3.41h-40.85c-.02-1.01-.26-1.46.49-2.29,1.28-1.4,9.86-4.26,12.25-5.21,7.11-3.06,13.86-6.05,20.24-8.99Z" fill="#f9fafb"/><path d="M165.68,207.79c12.93-6.39,26.5-11.55,40.1-16.4,5.52-1.96,3.22,16.34,1.89,16.98-14.17,6.39-29.49,12.23-43.49,17.39-.68.27-1.47.44-2.25.75-.57.9-1.4,1.34-2.35,1.71-25.84,10.17-52.29,20.85-78.46,31.48-1.98.8-3.96,1.38-6.13,1.28-.36-.02-.71-.07-1-.23-.68-.36-.45-14.75,0-15.38.19-.27.57-.4,1-.5l-.09-.8c14.1-6.07,28.45-12.13,42.82-17.56.89-.29,3.61-.62,3.75-.75.46-.49.96-.99,1.5-1.5.48-.07,1.05.09,1.5,0,12.13-4.77,24.12-9.76,35.98-14.98,1.45-.53,3.8-.96,5.25-1.5Z" fill="#f9fafb"/><path d="M116.96,204.8c4.88-2.45,30.66-14.72,34.25-14.04.23.04.42.27.61.55.02-.31.07-.57.23-.68,1.58-1.04,33.22-.4,37.86-.15.19.01.35.37.51.82,1.53,1.47.02,2.92-4.52,4.36-2.44.51-4.43,1.3-5.98,2.39-.69.12-1.53-.09-2.25,0-.27.65-.77,1.15-1.5,1.5-.8.17-3.41.36-3.75.75l-1.5,1.5c-5.05,1.37-10.1,2.99-14.97,4.89-26.57,10.36-52.76,21.93-79.28,32.45-.8.52-2.44-.48-2.44-1v-14.98c0-.33.85-1.63,1.27-1.92,13.92-5.2,27.61-11.05,41.45-16.44Z" fill="#f9fafb"/><path d="M100.47,99.9c3.17-1.03,8-3.42,10.85-3.77,11.38-1.39,25.69.97,37.37.15l1.25,2.11c-16.37,6.52-32.95,12.65-49.29,19.27-13.2,5.35-28.9,11.01-42.16,17.45-2.44,1.18-2.43,2.81-6,2.25-2.17-1.94-2.2-16.2-1.01-17.9.24-.34.61-.6,1.01-.83.56-.23,1.4-.41,2.25-.75.31-.53.63-1.04,1.04-1.49,2.22-2.44,22.58-9.38,27.55-11.05,3.36.02,7.92-1.15,10.4-3.2.61-.12,2.06.17,2.25,0l1.5-1.5c1.14-.26,1.82-.37,3-.75Z" fill="#f9fafb"/><path d="M74.23,208.54c-.23-3.03-.11-6.01.34-8.94,21.52-8.87,43.21-17.42,65.07-25.64l1.3.87c.46-.02.85.01,1,.22.41.56.51,13.43,0,13.91-.26.24-.62.38-1,.48,1.68.77-.9,2.26-2.12,2.78-13.87,5.35-27.41,10.79-40.61,16.33-1,.34-2.5.33-3.75.75-5.97,2.85-12.05,5.67-18.44,7.49-1.77.5-2.02-3.94-1.8-5.24.13-.95-.12-2.04,0-3Z" fill="#f9fafb"/><path d="M134.95,242.26c1.33-1.85,7.29-3.33,6-.37.47.05.84.12.85.22.29,2.52.76,11.41.15,13.52-.07.24-.48.38-1,.49l.06,1.53c-21.52,8.75-43.06,17.46-64.62,26.12l-1.4-1.05c-.37-.06-.73-.15-1-.35-.63-.46-.55-14.37,1-15.01l-.18-1.01c17.66-7.56,35.46-14.84,53.4-21.84,1.26-.35,2.49-.48,3.75-.75.25-.64.75-1.14,1.5-1.5.48-.07,1.06.09,1.5,0Z" fill="#f9fafb"/><path d="M236.14,152.35c-.65.27-1.46.43-2.25.75-3.57,2.49-26.67,13.14-29.65,11.48-.96-.54-1.2-1.35-.33-2.12-1.37-2.59-1.34-9.28,0-11.99-.99-.08-.84-1.34-.36-2.07,1.34-2.05,38.13-16.56,45.1-19.07,1.59-.75,11.03-4.65,10.5-1.59-.06.35-.27.68-.52,1,1.27,2.75,1.39,9.23,0,11.99.83.35.81,1.07.35,1.74-1.57,2.35-18.28,8.86-21.9,10-.27.09-.6,0-.94-.13Z" fill="#f9fafb"/><path d="M146.19,166.21c.07-.25,1.17-1.33,1.51-1.49,1.4-.65,17.49-.74,19.89-.42s3.63,1.7,4.04,4.2.66,18.31-1.83,18.31h-22.49c-.08,0-1.12-1.04-1.12-1.12,0-4.16-.83-16.53,0-19.48Z" fill="#f9fafb"/><path d="M177.67,225.03c9.12-4.47,18.81-8.45,28.42-11.79,1.34-.47,2.95.23,2.32,1.68,1.34,3.3,1.33,10.06,0,13.49,1.11.76-.83,2.32-1.85,2.92-4.71,2.76-30.6,3.07-36.71,2.19-8.42-.62-7.56-2.94,2.58-6.97,1.69-.58,3.57-.9,5.25-1.5Z" fill="#f9fafb"/><path d="M86.97,101.4l-3.65,2.85-28.82,11.21c-2.24-.31-2.91-1.13-2.01-2.45-.36-.02-.71-.07-1-.22-.64-.35-.67-13.59,1-14.01-.71-2.35,1.19-3.47,5.7-3.36l35.26.18c2.86,1.4,1.7,3.09-3.48,5.06-.93.28-1.86.37-3,.75Z" fill="#f9fafb"/><path d="M117.71,226.52l-42.73,18.36v16.11c20.67-9.01,42.32-16.06,62.98-25.09,8.29-3.62,15.58-6.01,23.98-9.38.34,1.9-3.17,2.76-4.52,3.35-10.97,4.8-23.04,8.48-34.22,12.99-13.27,5.36-26.82,12.15-39.82,17.29-3.43,1.36-7.93,3.05-11.39,1.56,2.07-4.05-.86-15.4,1.83-18.02,14.45-6.23,28.94-12.29,43.9-17.19Z" fill="#2f3788"/><path d="M98.22,208.54c-.4-1.93.94-1.53,2.05-2.03,12.34-5.58,25.62-9.98,38.2-15.05.61-.26,2.48-1.67,2.48-2.02v-14.61l-65.22,25.1c-1.5,1.25-.48,4.91-.71,6.81-.12.96-.76,1.65-.78,1.81-1.02-1.77-1.21-7.55-.76-9.21.57-2.09,16.93-6.81,19.88-8.02,13.5-5.51,27.94-13.07,41.76-17.45,1.22-.39,8.08-2.69,8.08-.16v15.73c0,1.84-4,3.52-5.49,4.25-11.36,5.53-27.31,10.72-39.48,14.86Z" fill="#2f3788"/><path d="M233.89,153.1c.42,1.98-.99,1.5-2.06,2.02-6.22,3.04-17.82,8.63-24.14,10.36-3.8,1.04-4.92.96-5.27-3.01-.19-2.09-.28-14.47.35-15.4l53.44-21.52c.84-.19,2.43-.5,3.09-.08,1.09.68,1.32,16.14.47,17.89-1.17,2.43-16.92,7.68-20.34,8.89-.96.34-2.55,1.68-3.27.1.12-.05.48-1,1.27-1.33,3.45-1.45,21.22-6.89,21.22-10.29v-11.99c0-1.04-2.18-1.2-3.2-.99-3.71.74-15.55,5.99-20.03,7.75-7.95,3.12-19.15,7.26-26.51,10.96-1.39.7-4.98,2.27-4.98,4.01v11.99c0,1.11,2.22,1.14,3.19.98,5.01-.82,21.03-7.98,26.8-10.35Z" fill="#2f3788"/><path d="M236.89,261.74c.34,1.89-3.18,2.77-4.52,3.35-6.62,2.85-16.95,7.49-23.55,9.42-1.56.46-4.57,1.89-4.91-.39-.53-3.53-.04-8.87.76-12.39,8.07-.78,24.12-.73,32.23,0Z" fill="#f9fafb"/><path d="M165.68,207.79c-.4-1.93.93-1.53,2.05-2.03,9.44-4.24,20.91-9.67,30.55-12.96,1.81-.62,9.79-3.73,10.91-1.76s1.22,15.48-.26,17.29-25.42,11.15-29.58,12.76-8.13,2.84-12.15,4.33c-.81.3-2.56,1.87-3.02.35,1.12-.45,2.82-1.93,4.51-2.61,12.82-5.11,25.81-9.83,38.48-15.3.37-2.78,3.39-15.74-1.24-15.66-13.32,5.49-26.73,10.6-40.25,15.59Z" fill="#2f3788"/><path d="M177.67,225.03c-.01-2.03,5.03-3.38,6.77-4.1,3.42-1.4,21.43-9.07,23.42-8.53,3.04.82,2.37,13.07,1.85,15.82-.67,3.59-2.89,4.17-6.23,5.01-7.23,1.81-30.04,1.45-38.21.83-1.9-.15-3.68-.8-5.59-.78-.32-1.38.45-1.46,1.24-2.12,2.74-2.32,8.07-3.44,11.5-4.62.38,2.31-6.18,3-6.74,3.76-1.07,1.42,1.65,2.16,2.58,2.27,5.94.7,32.92.56,37.35-1.7.63-.32,2.79-2.12,2.79-2.45v-13.49c0-.52-1.64-1.52-2.44-1-9.32,4.02-18.74,7.69-28.29,11.11Z" fill="#2f3788"/><path d="M116.96,204.8c-.43-1.85,1.02-1.46,2.1-1.98,7.09-3.39,26.57-12.07,33.56-12.95,9.35-1.16,29.21-.77,38.95-.1.8.06,3.78.47,4.09.8,1.3,1.39-.68,1.28-1.09,1.55-3.94,2.56-9.96,5.15-14.65,5.93-.44-2.07,1.07-1.4,2.23-1.85,2.55-.98,7.89-2,8.26-4.89h-38.6c-2.94,0-29.56,11.43-34.86,13.49Z" fill="#2f3788"/><path d="M160.43,209.29c.39,1.85-.86,1.59-2.03,2.05-9.69,3.82-24.34,11.03-33.95,12.93-.4-1.92.92-1.54,2.05-2.03,11.11-4.89,22.59-8.8,33.93-12.95Z" fill="#2f3788"/><path d="M204.66,298.45c.44,1.98-1.03,1.43-2.18,1.9-9.08,3.73-18.43,8.09-27.6,11.41-1.97.71-5.68,2.28-7.69,1.68,9.84-5.56,26.51-11.41,37.48-14.98Z" fill="#2f3788"/><path d="M245.88,281.97c.23,1.76-3.96,2.85-5.26,3.36-8.46,3.37-20.69,9.13-29.22,10.87-.39-1.85.87-1.58,2.03-2.05,10.74-4.32,21.48-8.52,32.45-12.18Z" fill="#2f3788"/><path d="M248.88,281.22c-.45-2.03,1.08-1.39,2.2-1.88,2.12-.94,6.75-2.43,7.39-4.64.95-3.26.31-9.87-1.34-12.95,1.3.1,3.09-.44,3.65,1.23.48,1.44.28,10.64-.24,12.29-1.12,3.62-8.37,4.9-11.66,5.96Z" fill="#2f3788"/><path d="M94.47,209.29l-5.73,3.64c-2.73.62-13.07,6.62-14.93,3.9-1.35-1.97.25-4.08.42-5.29l1.87,4.51c6.07-2.39,12.17-4.69,18.36-6.75Z" fill="#2f3788"/><path d="M52.49,118.64c-1.03,6.01-1.32,12.77,0,18.73-.68-.11-1.47,0-1.9-.7-.52-.84-.66-14.43-.35-16.16.38-2.11,1.09-1.4,2.25-1.87Z" fill="#2f3788"/><path d="M157.43,320.93c.45,2.07-1.08,1.4-2.23,1.85-6.01,2.33-12.01,4.77-18.01,7.14-.22-1.77,3.95-2.83,5.26-3.36,4.96-2,9.96-3.8,14.98-5.63Z" fill="#2f3788"/><path d="M244.39,305.19c.46,2.02-1.5,1.78-3,2.25-.47-2.08,1.53-1.72,3-2.25Z" fill="#2f3788"/><path d="M122.95,224.28c.19,1.57.07,1.69-1.5,1.5.51-.49-1.31-1.11,1.5-1.5Z" fill="#2f3788"/><path d="M133.45,242.26c.28,2.2-.3,1.24-1.5,1.5-.23-2.09.12-1.31,1.5-1.5Z" fill="#2f3788"/><path d="M172.43,200.3c-.59.68,1.3.74-1.5,1.5-.22-1.51-.01-1.73,1.5-1.5Z" fill="#2f3788"/><path d="M177.67,198.05c.28,2.2-.3,1.24-1.5,1.5-.22-2.07.1-1.32,1.5-1.5Z" fill="#2f3788"/><path d="M209.16,296.2c-.58.52,1.4.85-1.5,1.5-.18-1.59-.09-1.68,1.5-1.5Z" fill="#2f3788"/><path d="M231.64,310.44c-.53.5,1.34,1.04-1.5,1.5-.18-1.59-.09-1.69,1.5-1.5Z" fill="#2f3788"/><path d="M164.93,314.18c-.52.66,1.22,1.13-1.5,1.5-.26-1.43.08-1.74,1.5-1.5Z" fill="#2f3788"/><path d="M97.47,100.65c.18,1.59.09,1.68-1.5,1.5.59-.52-1.4-.85,1.5-1.5Z" fill="#2f3788"/><path d="M134.95,242.26c.02-2.68,6.66-4.02,7.38-1.75.83,2.64,1.55,16.2.19,17.94-.6.77-4.55,1.12-3.07,2.53.27.26,3.5.06,3.78,1.25.34,1.42.11,16.79-.39,17.51-8.77,4.07-17.68,7.97-26.64,11.58-5.46,2.19-11.35,3.67-16.66,5.82-12.36,5-33.09,16.29-45.35,18.38-1.41.24-3.27.62-3.83-1.07-.25-.76-.64-10.96-.57-12.5.5-11.28,15.38-7.67,22.62-9.45-.34-2.01,1.76-4.5,1.86-5.72.13-1.42-1.31-2.6-1.57-4.39-.44-3.05-.4-15.5,1.73-17.45,1.51-1.38,10.15-3.38,12.54-4.33,13.66-5.4,27.05-12.15,41.24-16.09l-53.22,22.85v15.36l65.96-26.6v-14.24c0-1.86-4.4.05-6,.37Z" fill="#2f3788"/><path d="M140.94,263.24v15.36c-6.09,3.8-13.5,5.56-20.21,8.27-22.09,8.89-44.02,18.42-66.35,26.62-.63.07-1.88-.79-1.88-1.17v-13.49c0-4.7,18.11-2.65,20.52-3.47,2.06-.7,1.26-5.91,2.43-6.72l62.1-24.68,3.4-.72Z" fill="#f9fafb"/><path d="M137.19,260.99c1.54,1.43-3.55,2.43-3.74,2.24-1.45-1.47,3.25-2.7,3.74-2.24Z" fill="#232122"/><path d="M131.94,262.49c1.31,1.27-2.59,2.63-2.99,2.24-1.31-1.27,2.59-2.63,2.99-2.24Z" fill="#232122"/><path d="M239.14,332.92c.76-2.66-3.91-.91-4.79-.66-4.01,1.16-10.67,5.55-13.54,5.94-8.53,1.18-31.5.74-40.52-.03-6.44-.55-2.14-3.29,1.13-4.87,15.38-7.42,32.25-12.29,48.09-18.61,7.44-2.97,19.4-10.06,26.66-11.58,1.05-.22,2.29-.44,3.23.19,1.84,1.23,1.86,13.31,1.42,15.72-.28,1.56-2.05,3.25-2.07,4.69s1.76,1.88,2.11,3.61c.64,3.25.85,10.79-3.38,11.58-3.29.61-19.68.51-23.17-.03-1.13-.17-4.41-1.53-3.41-2.94.32-.46,4.97-1.92,5.99-2.26,3.35.9-.44,3.94-1.87,2.77-.12-.1,2.71-1.14,1.5.98.07-.59.26-1.47.67-1.5,5.09-.4,13.38-.39,18.48,0l1.09,1.5c2.67-7.88,1.43-10.43-3.71-7.66l-12.61,4.31-1.29-1.14Z" fill="#2f3788"/><path d="M239.14,332.92c2.85-.96,17.73-6.33,19-6.04,1.72.39,2.25,10.54-1.38,10.54h-20.24c-.41,0-2.38-1.02-1.87-1.48,1.39-.1,2.38-.8,2.25-2.26.75-.25,1.5-.5,2.25-.75Z" fill="#f9fafb"/><path d="M181.42,336.66l2.32-2.56,73.69-28.96c1.57.25,2.17,14.51-.32,16.14l-37.83,15.38h-37.85Z" fill="#f9fafb"/><path d="M89.97,100.65c-.49-2.96,4.54-.76,3.74-3.74-2.87.73-6.18-.78-8.65-.78-1.79,0-3.4.8-5.18.81-4.52.01-23.36-.82-25.88.35-.35.17-1.51,1.36-1.51,1.49v14.24c0,.23,1.12,1.33,1.72,1.01,10.98-4.1,21.62-8.93,32.76-12.63,1.2,2.02-4.96,2.14-2.99,3.74.39.32,7.65-2.6,9.74-2.99.44,2.02-1.03,1.44-2.22,1.86-11.96,4.21-25.63,9.45-36.76,13.87-.07-3.09-3.71-.19-4.48-4.14-.59-3.05-.75-17.33,2.22-18.71.88-.41,6.47-1.1,7.84-1.15,7.79-.29,16.38.56,24.1.71,2.79.05,11.89-1.46,13.46.78,2.5,3.56-6.06,4.73-7.92,5.29Z" fill="#2f3788"/><path d="M58.12,114.89c.49.25.49.5,0,.75v-.75Z" fill="#232122"/><path d="M210.28,169.58c-.4-.11-1.34-1.22-1.12-1.86.6-2.93,24.48-10.45,28.46-12.02,6.7-2.64,12.93-6.52,19.9-8.58,1.48.14,2.31,1.22,2.58,2.62.44,2.27.31,15.38-.92,16.65-.22.23-5.12,3.18-5.43,3.18h-43.48Z" fill="#2f3788"/><path d="M215.15,168.08l.45-2.31,40.55-16.27c3.55-.07,2.95,11.65,2.15,14.13s-6.95,4.45-9.04,4.45h-34.11Z" fill="#f9fafb"/><path d="M100.47,99.9l6.08-4.04c5.17-1.95,35.58-1.99,42.28-1.22,1.87.21,5.31,1.36,4.01,3.67-.26.46-7.56,3.41-8.9,3.09-.03,1.27-.4,1.63,1.09,1.47,6.74-.76,14.76-7.96,21.08-8.92,7.14-1.08,31.5-.91,38.94-.06,2.46.28,5.53,1.6,3.76,4.53-.73,1.2-6.76,2.07-8.84,3.16-.89.46-2.43,1.29-.19,1.32,7.58-.53,14.72-7.24,21.82-8.17,11.1-1.46,25.09.82,36.51.09,6.83,4.69-.48,5.27-4.62,7.08-.88.38-2.69.85-2.34,2.12,2.35.81,4.82-2.1,7.09-1.89,3.96.37,1.94,4,2.06,5.64.3,4.3,1.6,11.43-2.02,14.61-2.08,1.83-15.7,6.94-19.35,8.38-5.98,2.37-12.27,4.08-18.27,6.47-3.76,1.5-10.92,6.03-14.33,6.72-.87.18-4.3-.36-4.57-.69-.36-.45.27-4.4-1.22-4.4h-26.24c-.4,0-1.54-1.63-1.12-2.24.24-.35,4.3-.13,2.61-2.27-4.86.52-10.37,3.82-15.02,4.46-2.82.39-16.96-.58-17.58.04-.36.36.98,6.66-1.95,8.94-.72.56-2.37.65-2.54.81-1.86,1.82,3.2,1.4,3.8,1.81.99.67,1.79,17.43-1.15,19.18l-65.97,26.24c-1.82-.15-1.75-1.16-1.93-2.63-.32-2.58-.67-11.7-.49-14.18.07-.97,1.03-2.32,1.46-3.28l20.79-8.42c-4-1.43-18.45,7.51-21.02,5.67-1.59-2.76-1.61-17.53.05-18.81.36-.28,3.74-.31,2.24-1.84-.17-.18-4.01-.16-4.38-1.95-.15-.75.72-1.98.62-2.93-.28-2.83-1.25-5.59-.75-8.62-1.79,1.37-11.27.26-9.73-2.24.1-.16,3.97-1.28,2.24-3.01-.34-.34-4.76,3.67-5.99,1.5,3.09-3.29,7.11-5.64,12.06-7.06l77.63-30.53c-12.72-.21-25.4-.08-38.04.38l-8.34,3.12-1.33-1.13Z" fill="#2f3788"/><path d="M257.13,96.91l-1.11,2.26c-21.01,8.42-42.25,16.7-63.34,25.1-8.27,3.3-19.76,9.65-27.88,11.84-6.42,1.74-16.39-.94-21.83.66-3.97,1.16-.08,7.87-4,9.49l-63.99,25.58v-15.36l1.56-1.44c48.27-18.88,96.37-38.25,144.23-58.13h36.35Z" fill="#f9fafb"/><path d="M203.91,96.91l-128.46,52.5c-2.24-.36-.51-10.64-1.32-11.94-.52-.83-7.15-.48-5.14-2.35.49-.45,10.74-3.34,12.73-4.14,27.93-11.16,55.64-22.96,83.59-34.08h38.6Z" fill="#f9fafb"/><path d="M140.94,152.35v14.61c-7.3,4.95-16.57,7.22-24.72,10.5-10.62,4.28-28.62,13.67-38.79,15.92-.82.18-1.61.25-2.44.18.49-2.44-1.08-14.59.46-15.82l65.5-25.39Z" fill="#f9fafb"/><path d="M179.92,136.62l77.49-31.52c1.58.25,2.2,14.53-.32,16.13l-50,19.75c-3.18,1.72-3.56-4.35-5.05-4.35h-22.11Z" fill="#f9fafb"/><path d="M137.19,149.36c.41,1.88-.44,1.32-1.4,1.94-2.16,1.4-20.92,9.29-21.83,8.54-1.41-1.16,1.06-1.62,1.48-1.86,6.77-3.97,14.54-5.67,21.75-8.62Z" fill="#232122"/><path d="M111.71,159.85c1.35,1.08-.96,1.63-1.45,1.88-3.26,1.65-7.82,2.56-11.28,4.1-.38-2,.43-1.3,1.5-1.83,1.32-.65,10.77-4.53,11.23-4.16Z" fill="#232122"/><path d="M77.6,151.6c.49.25.49.5,0,.75v-.75Z" fill="#232122"/><path d="M204.66,261.74l1.25,1.33c-.65,3.56-.94,7.27-.55,10.84,10.7-3.52,21.21-7.57,31.53-12.17.59.05,1.2-.04,1.79-.01,2.23,3.28-3.92,2.56-4.79,5.25,5.78-1.24,11.23-4.63,17.24-5.24l-46.15,19.43c-3,2.61,1.26,12.85-3.1,14.13-11.81.86-23.95-1.06-35.58,1.14-24.42,10.06-48.85,20.18-73.34,30.09-5.92,2.4-14.94,4.6-20.16,7.57-.89.51-1.95,1.57-2.32,2.56h38.6c16.59-5.03,35.58-17.24,52.1-20.98.42,1.98-1,1.5-2.06,2.02-12,5.9-24.48,9.99-36.9,14.85-2.13.83-10.27,5.6-10.88,5.6h-43.48c-.47,0-1.16-1.26-1.15-1.89.02-3.09,10.55-3.95,12.02-7.1-3.57,1.02-8.68,2.04-12,3.35-3.78,1.5-10.63,6.84-14.49,5.5-4.49-1.56-1.15-7.21-1.35-7.76-.24-.66-1.8.25-1.4-1.47.17-.75,1.22-.12,1.41-.74.3-.96-1.61-7.62.06-9.03,17.51-7.58,35.52-13.92,53.22-20.99,9.56-3.82,19.17-8.91,28.87-12.35,9.71-3.44,10.7-4.3,10.13,7.52,5.05-.28,10.08.41,14.99,1.5.67.9-5.88,3.96-6.92,3.93l-5.82,3.54c3.63-.58,7.93-1.96,11.37-3.23s8.49-4.5,11.54-4.95c10.6-1.6,23.5,2.09,34.06-1.55v-11.61c0-1.08,8.31-2.69,8.99-4.86-1.92-.78-9.74,4.19-9.74.37v-11.24c0-2.9.24-3.1,3-3.37Z" fill="#2f3788"/><path d="M151.44,295.46l-.52,2.25-97.75,37.78c-1.06-1.53-1.03-12.51-.13-14.38.78-1.61,7.74-4.06,9.97-5.01,25.18-10.8,51.44-20,76.73-30.34,2.44.71-.05,7.72,2.69,9.34,1.81,1.07,8.53-.13,9.01.37Z" fill="#f9fafb"/><path d="M125.2,310.45c-6.03,4.65-14.28,7.28-21.73,8.98-.42-2.12.61-1.2,1.61-1.73,6.14-3.28,13.43-5.31,20.13-7.25Z" fill="#232122"/><path d="M143.19,302.95c.42,2.17-.64,1.19-1.65,1.69-4.34,2.12-9.3,4.21-14.09,5.05,4.09-3.41,10.68-4.78,15.74-6.73Z" fill="#232122"/><path d="M95.21,322.43l-4.86,3.01-10.12,3.73c-.38-1.99.42-1.3,1.5-1.83,4.24-2.07,8.87-3.81,13.48-4.91Z" fill="#232122"/><path d="M98.21,320.93c.82.82-.67,2.31-1.49,1.49s.67-2.31,1.49-1.49Z" fill="#232122"/><path d="M102.34,319.43c.49.25.49.5,0,.75v-.75Z" fill="#232122"/></svg>